<?xml version="1.0" standalone="no"?>
<!DOCTYPE svg PUBLIC "-//W3C//DTD SVG 20010904//EN"
 "http://www.w3.org/TR/2001/REC-SVG-20010904/DTD/svg10.dtd">
<svg version="1.0" xmlns="http://www.w3.org/2000/svg"
 width="509.000000pt" height="480.000000pt" viewBox="0 0 509.000000 480.000000"
 preserveAspectRatio="xMidYMid meet">

<g transform="translate(0.000000,480.000000) scale(0.100000,-0.100000)"
fill="#000000" stroke="none">
<path d="M2745 3946 c-150 -29 -185 -38 -180 -47 3 -5 -1 -6 -9 -3 -22 8 -118
-22 -143 -45 -13 -12 -23 -16 -25 -9 -3 7 -13 6 -33 -5 l-30 -16 25 -10 c14
-5 20 -10 13 -10 -6 -1 -19 -4 -29 -8 -13 -5 -15 -3 -9 8 4 8 -3 3 -16 -11
-27 -28 -11 -43 17 -16 17 18 42 20 62 7 9 -5 41 1 84 15 38 13 80 24 91 24
18 0 19 2 7 11 -12 8 -11 9 6 5 11 -4 65 3 118 14 126 26 343 28 449 4 236
-53 380 -200 394 -402 9 -123 -39 -261 -119 -348 -29 -32 -41 -53 -40 -73 1
-40 21 -111 31 -111 18 0 93 69 132 120 89 119 129 230 129 359 -1 274 -145
461 -415 536 -82 23 -410 30 -510 11z m-305 -141 c-7 -8 -17 -12 -23 -8 -6 4
-3 9 9 14 27 11 28 11 14 -6z"/>
<path d="M2270 3800 c-8 -5 -10 -10 -5 -10 6 0 17 5 25 10 8 5 11 10 5 10 -5
0 -17 -5 -25 -10z"/>
<path d="M2336 3765 c-3 -9 0 -15 8 -15 7 0 19 7 26 15 10 12 9 15 -8 15 -11
0 -22 -7 -26 -15z"/>
<path d="M2198 3763 c7 -3 16 -2 19 1 4 3 -2 6 -13 5 -11 0 -14 -3 -6 -6z"/>
<path d="M2238 3753 c7 -3 16 -2 19 1 4 3 -2 6 -13 5 -11 0 -14 -3 -6 -6z"/>
<path d="M2235 3720 c-68 -34 -58 -33 30 4 33 14 53 26 45 26 -8 0 -42 -14
-75 -30z"/>
<path d="M1573 3314 c-20 -9 -18 -411 2 -487 32 -125 107 -215 223 -270 62
-30 75 -32 173 -32 101 0 108 1 181 37 91 45 147 103 191 196 l32 67 3 239 c3
191 1 241 -10 247 -15 10 -158 12 -182 3 -14 -5 -16 -34 -16 -219 0 -126 -4
-225 -11 -242 -13 -34 -69 -94 -81 -87 -5 3 -8 125 -7 271 0 153 -3 269 -9
275 -5 5 -49 8 -98 6 l-89 -3 -3 -277 c-1 -183 -6 -278 -13 -278 -14 0 -59 49
-72 80 -7 15 -14 117 -17 250 l-5 225 -90 2 c-49 1 -96 -1 -102 -3z"/>
<path d="M2417 3313 c-4 -3 -7 -50 -7 -104 l0 -98 148 -3 147 -3 3 -292 2
-293 105 0 105 0 0 295 0 294 148 3 147 3 0 100 0 100 -396 3 c-217 1 -398 -1
-402 -5z"/>
<path d="M3309 2742 c-26 -20 -81 -62 -124 -92 -43 -30 -97 -69 -120 -86 -50
-38 -305 -159 -435 -207 -106 -39 -360 -108 -489 -131 -46 -9 -142 -17 -215
-17 l-131 -2 90 -8 c50 -4 104 -6 120 -5 17 2 22 1 13 -1 -11 -3 -18 -14 -18
-30 0 -22 2 -24 15 -13 13 11 18 10 30 -6 8 -10 12 -25 10 -31 -2 -7 1 -13 7
-13 8 0 9 -3 2 -10 -6 -6 -21 -6 -39 -1 -19 6 -23 10 -11 10 11 1 17 3 14 6
-3 3 -23 1 -44 -4 -33 -7 -35 -9 -11 -10 15 -1 27 -5 27 -10 0 -5 12 -12 28
-14 15 -2 -7 -5 -48 -7 -41 -1 -64 -5 -50 -8 14 -2 90 1 170 8 183 16 477 87
659 161 148 59 367 175 501 265 116 78 150 108 150 131 -1 33 -36 157 -45 159
-6 2 -31 -13 -56 -34z"/>
<path d="M1718 2213 c6 -2 18 -2 25 0 6 3 1 5 -13 5 -14 0 -19 -2 -12 -5z"/>
<path d="M1788 2073 c7 -3 16 -2 19 1 4 3 -2 6 -13 5 -11 0 -14 -3 -6 -6z"/>
<path d="M1943 2073 c9 -2 23 -2 30 0 6 3 -1 5 -18 5 -16 0 -22 -2 -12 -5z"/>
<path d="M1004 1785 c-4 -9 -4 -91 -2 -183 4 -157 6 -170 31 -219 59 -114 132
-112 189 5 l32 65 1 171 0 171 -26 3 -26 3 -5 -148 c-3 -96 -10 -159 -19 -178
-13 -27 -14 -14 -19 145 l-5 175 -27 3 -28 3 0 -170 c0 -157 -7 -199 -25 -153
-3 9 -6 78 -5 153 0 75 -2 143 -6 153 -8 20 -53 21 -60 1z"/>
<path d="M1358 1785 c-76 -42 -114 -247 -67 -370 12 -33 35 -72 50 -88 27 -26
32 -28 106 -25 l78 3 3 99 c6 202 -22 326 -84 375 -31 24 -49 26 -86 6z m78
-136 c26 -29 32 -144 10 -187 -32 -63 -86 -47 -107 32 -31 114 37 222 97 155z"/>
<path d="M1547 1794 c-4 -4 -7 -117 -7 -251 l0 -244 128 3 127 3 0 55 0 55
-75 3 c-131 4 -119 -16 -122 195 -3 175 -4 182 -23 185 -12 2 -24 0 -28 -4z"/>
<path d="M1898 1785 c-15 -9 -38 -39 -55 -72 -27 -56 -28 -64 -31 -235 l-3
-178 30 0 31 0 0 143 c0 119 4 149 20 185 15 33 24 42 44 42 49 0 60 -37 66
-209 l5 -156 30 0 30 0 3 90 c5 146 -12 278 -42 330 -43 72 -76 88 -128 60z"/>
<path d="M2170 1787 c-13 -7 -38 -39 -55 -72 -28 -55 -30 -66 -30 -169 0 -98
3 -117 25 -160 37 -73 59 -86 146 -86 l74 0 0 50 c0 28 1 53 3 58 1 4 -31 10
-72 13 -61 4 -77 10 -92 28 -11 13 -16 27 -13 32 3 5 43 9 90 9 l84 0 0 75 c0
155 -78 264 -160 222z m72 -134 c32 -29 22 -43 -31 -43 -57 0 -66 8 -45 38 18
26 50 28 76 5z"/>
<path d="M2435 1782 c-16 -10 -41 -41 -55 -68 -23 -46 -25 -60 -28 -231 l-4
-183 30 0 30 0 3 158 c5 206 8 212 114 212 70 0 75 1 81 23 3 13 4 41 2 63
l-3 39 -70 3 c-54 2 -77 -2 -100 -16z"/>
<path d="M2752 1738 c2 -41 7 -63 16 -64 6 -1 25 -2 42 -3 l30 -1 2 -182 3
-183 30 0 30 0 3 183 2 182 45 0 c50 0 59 14 53 86 l-3 39 -128 3 -128 3 3
-63z"/>
<path d="M3110 1787 c-14 -7 -38 -37 -55 -67 -25 -47 -30 -69 -33 -146 -5
-115 15 -193 63 -241 32 -32 36 -33 109 -33 l76 0 0 59 0 59 -71 4 c-60 3 -74
8 -90 27 -10 13 -16 27 -13 32 3 5 43 9 90 9 60 0 84 4 85 13 0 6 0 39 -1 72
-3 146 -82 252 -160 212z m80 -147 c15 -29 14 -30 -45 -30 -61 0 -67 9 -30 46
20 20 29 23 45 14 11 -6 24 -19 30 -30z"/>
<path d="M3380 1783 c-56 -29 -83 -97 -88 -218 -3 -84 0 -109 18 -157 12 -33
34 -68 51 -83 27 -22 40 -25 105 -25 l74 0 0 60 0 60 -63 0 c-74 0 -100 15
-117 66 -15 44 -7 127 15 160 13 20 24 24 87 26 l73 3 0 60 0 60 -60 3 c-42 2
-70 -3 -95 -15z"/>
<path d="M3557 1738 c-3 -52 -3 -246 2 -405 1 -30 4 -33 31 -33 l30 0 0 125 0
125 28 0 c77 -1 93 -25 101 -155 6 -90 6 -90 35 -93 l28 -4 -4 124 c-3 113 -6
127 -32 175 -30 54 -55 70 -116 75 l-35 3 -5 60 c-5 56 -7 60 -32 63 -25 3
-26 2 -31 -60z"/>
<path d="M1482 1058 l3 -93 80 -1 c44 0 85 3 91 8 6 5 11 41 10 90 -1 70 -4
83 -18 86 -16 3 -18 -6 -18 -77 0 -74 -2 -80 -20 -78 -18 1 -20 8 -20 80 0 69
-2 78 -17 75 -10 -2 -18 -12 -19 -23 0 -11 -1 -46 -2 -77 -2 -51 -5 -58 -22
-58 -18 0 -20 7 -20 80 0 65 -3 80 -15 80 -13 0 -15 -15 -13 -92z"/>
<path d="M1690 1131 c0 -17 7 -18 54 -16 50 3 54 1 59 -20 4 -23 1 -24 -52
-27 l-56 -3 0 -50 0 -50 70 0 70 0 1 80 c1 44 -1 85 -3 92 -4 9 -28 13 -74 13
-61 0 -69 -2 -69 -19z m110 -116 c0 -22 -4 -25 -34 -25 -37 0 -51 12 -42 35 3
9 19 15 41 15 31 0 35 -3 35 -25z"/>
<path d="M1862 1073 c-2 -110 0 -113 59 -113 43 0 50 3 47 18 -2 13 -11 16
-36 14 l-32 -4 0 81 c0 72 -2 81 -18 81 -17 0 -19 -9 -20 -77z"/>
<path d="M2002 1133 c-4 -10 -7 -45 -7 -78 0 -90 4 -95 73 -95 32 0 63 5 70
12 16 16 15 55 -2 61 -17 7 -26 -1 -26 -23 0 -13 -8 -17 -37 -15 l-38 1 -3 62
-3 62 41 0 c33 0 40 -3 40 -20 0 -13 7 -20 20 -20 14 0 20 7 20 23 0 36 -19
47 -82 47 -46 0 -60 -4 -66 -17z"/>
<path d="M2174 1137 c-2 -7 -4 -49 -2 -93 l3 -79 70 0 70 0 0 90 0 90 -68 3
c-51 3 -68 0 -73 -11z m111 -81 l0 -63 -39 2 -38 2 -2 56 -1 56 35 4 c19 2 37
4 40 5 3 1 5 -27 5 -62z"/>
<path d="M2341 1054 c1 -82 3 -95 18 -92 13 3 17 18 19 81 2 68 5 78 20 75 14
-3 18 -17 20 -81 2 -59 6 -77 17 -77 11 0 15 15 17 63 2 101 0 95 37 89 4 -1
8 -35 7 -74 -1 -63 1 -73 17 -76 17 -3 18 4 15 90 -3 88 -4 93 -26 96 -13 2
-29 -2 -37 -8 -9 -7 -15 -8 -20 0 -3 5 -29 10 -56 10 l-50 0 2 -96z"/>
<path d="M2614 1137 c-3 -8 -4 -49 -2 -93 l3 -79 73 -3 c66 -3 73 -1 70 15 -3
15 -12 17 -56 15 l-52 -3 0 65 0 66 55 0 c42 0 55 3 55 15 0 20 -138 22 -146
2z"/>
<path d="M2792 1133 c-8 -22 -8 -133 1 -156 5 -13 19 -17 67 -17 71 0 73 3 74
94 1 91 -3 96 -74 96 -48 0 -62 -4 -68 -17z m108 -78 l0 -65 -40 0 -40 0 0 65
0 65 40 0 40 0 0 -65z"/>
<path d="M2960 1054 c0 -77 3 -94 15 -94 12 0 15 16 15 80 0 73 2 80 20 80 12
0 20 -7 21 -17 0 -10 1 -45 2 -78 2 -48 5 -60 20 -63 15 -3 17 6 17 78 0 72 2
81 18 78 14 -3 17 -16 20 -81 2 -68 5 -78 20 -75 14 3 18 17 20 82 2 45 -2 83
-8 91 -7 9 -38 13 -95 13 l-85 0 0 -94z"/>
<path d="M2557 984 c-9 -10 2 -24 19 -24 8 0 14 7 14 15 0 15 -21 21 -33 9z"/>
</g>
</svg>
